<svg width="19" height="16" viewBox="0 0 19 16" fill="none" xmlns="http://www.w3.org/2000/svg">
<path d="M2.56836 1.46777C3.67419 0.361945 5.28378 0.608286 5.88281 1.68164L6.53125 2.84473C6.93498 3.56815 6.79732 4.58454 6.08398 5.29785L6.4873 5.70117C6.0839 5.29797 6.08344 5.29839 6.08301 5.29883L6.07617 5.30566C6.07318 5.30875 6.06991 5.31269 6.06641 5.31641C6.05918 5.32407 6.05019 5.3334 6.04102 5.34375C6.02276 5.36437 6.00083 5.39039 5.97656 5.42188C5.92793 5.48498 5.86878 5.57106 5.81055 5.67969C5.69326 5.89859 5.57888 6.21025 5.55957 6.60449C5.51998 7.41477 5.88407 8.39574 6.99414 9.50586C8.10412 10.6158 9.08523 10.98 9.89551 10.9404C10.2897 10.9212 10.6004 10.8066 10.8193 10.6895C10.9281 10.6313 11.014 10.5721 11.0771 10.5234C11.1088 10.4991 11.1356 10.4773 11.1562 10.459C11.1666 10.4499 11.176 10.4418 11.1836 10.4346L11.2012 10.417C11.2017 10.4165 11.2018 10.4164 10.6719 9.88574L11.2021 10.416C11.9155 9.70268 12.9318 9.56502 13.6553 9.96875L14.8184 10.6172C15.8917 11.2162 16.138 12.8257 15.0322 13.9316C14.2569 14.707 13.4008 15.2115 12.5381 15.2441C10.8027 15.3099 7.7774 14.8809 4.69824 11.8018C1.61913 8.7226 1.19015 5.69731 1.25586 3.96191C1.28857 3.09913 1.79301 2.24312 2.56836 1.46777Z" stroke="black" stroke-width="1.5"/>
</svg>
