<svg width="30" height="30" viewBox="0 0 30 30" fill="none" xmlns="http://www.w3.org/2000/svg">
<path fill-rule="evenodd" clip-rule="evenodd" d="M12.5711 18.7155H17.4282C17.7513 19.8337 18.4951 20.7849 19.5052 21.368C20.5409 21.966 21.7718 22.128 22.927 21.8185C22.9278 21.8183 22.9287 21.818 22.9295 21.8178C24.0847 21.5083 25.0697 20.7525 25.6676 19.7168C26.2656 18.6811 26.4277 17.4502 26.1181 16.295C25.7013 14.7394 25.2153 12.9257 24.7985 11.3701C24.489 10.2149 23.7332 9.22995 22.6975 8.63198C21.6617 8.03401 20.4309 7.87196 19.2757 8.18149C19.2748 8.18171 19.274 8.18195 19.2731 8.1822C18.6085 8.36025 18.0002 8.68604 17.4896 9.12788C17.4899 9.12758 12.5094 9.12758 12.5094 9.12758C11.9994 8.68619 11.391 8.3603 10.7262 8.18217C10.7254 8.18195 10.7245 8.18171 10.7237 8.18149C9.56845 7.87196 8.33758 8.03401 7.30187 8.63198C6.26613 9.22995 5.51038 10.2149 5.20085 11.3701C4.78401 12.9257 4.29804 14.7394 3.8812 16.295C3.57167 17.4502 3.73371 18.6811 4.33168 19.7168C4.92968 20.7525 5.9146 21.5083 7.0698 21.8178C7.07067 21.818 7.07152 21.8183 7.07239 21.8185C8.22759 22.128 9.45843 21.966 10.4942 21.368C11.5042 20.7849 12.248 19.8337 12.5711 18.7155ZM18.7426 17.776C18.5704 17.1849 18.0192 17.2016 18.0079 17.2016C14.9757 17.2111 11.9914 17.2016 11.9914 17.2016C11.5992 17.211 11.3374 17.4709 11.2567 17.776C11.2053 17.9702 11.1753 18.0795 11.1358 18.2272C11.0722 18.4654 11.072 18.4654 11.1329 18.2381C10.9273 19.0055 10.4252 19.6597 9.73723 20.057C9.04923 20.4542 8.23159 20.5618 7.46421 20.3562L7.46161 20.3555C6.69423 20.1499 6.03997 19.6479 5.64275 18.9598C5.24554 18.2718 5.13789 17.4542 5.34351 16.6868C5.76033 15.1312 6.24629 13.3175 6.66313 11.7619C6.86875 10.9945 7.37078 10.3403 8.05881 9.94302C8.74681 9.5458 9.56445 9.43816 10.3318 9.64378L10.3344 9.64448C10.8467 9.78175 11.3086 10.0511 11.6772 10.4198C11.8192 10.5617 12.0117 10.6415 12.2125 10.6415H17.7869C17.9876 10.6415 18.1802 10.5617 18.3221 10.4198C18.6907 10.0511 19.1526 9.78175 19.6649 9.64448L19.6675 9.64378C20.4349 9.43816 21.2525 9.5458 21.9405 9.94302C22.6285 10.3403 23.1306 10.9945 23.3362 11.7619C23.753 13.3175 24.239 15.1312 24.6558 16.6868C24.8615 17.4542 24.7538 18.2718 24.3566 18.9598C23.9594 19.6479 23.3051 20.1499 22.5377 20.3555L22.5351 20.3562C21.7677 20.5618 20.9501 20.4542 20.2621 20.057C19.5809 19.6636 19.082 19.0183 18.8726 18.2607L18.7426 17.776ZM12.5666 18.7155H12.5663L12.5642 18.7211L12.5484 18.7573C12.5549 18.7436 12.561 18.7297 12.5666 18.7155ZM8.94415 13.0687H8.19264C7.77488 13.0687 7.4357 13.4078 7.4357 13.8256C7.4357 14.2434 7.77488 14.5825 8.19264 14.5825H8.94415V15.3341C8.94415 15.7518 9.28331 16.091 9.70109 16.091C10.1188 16.091 10.458 15.7518 10.458 15.3341V14.5825H11.2095C11.6273 14.5825 11.9665 14.2434 11.9665 13.8256C11.9665 13.4078 11.6273 13.0687 11.2095 13.0687H10.458V12.3171C10.458 11.8994 10.1188 11.5602 9.70109 11.5602C9.28331 11.5602 8.94415 11.8994 8.94415 12.3171V13.0687Z" fill="black"/>
<path fill-rule="evenodd" clip-rule="evenodd" d="M19.5024 15.29C19.5024 14.8478 19.8613 14.4889 20.3035 14.4889C20.7456 14.4889 21.1046 14.8478 21.1046 15.29C21.1046 15.7321 20.7456 16.0911 20.3035 16.0911C19.8613 16.0911 19.5024 15.7321 19.5024 15.29ZM21.7678 13.0246C22.2099 13.0246 22.5689 13.3835 22.5689 13.8257C22.5689 14.2678 22.2099 14.6268 21.7678 14.6268C21.3256 14.6268 20.9667 14.2678 20.9667 13.8257C20.9667 13.3835 21.3256 13.0246 21.7678 13.0246ZM18.8392 13.0246C19.2813 13.0246 19.6403 13.3835 19.6403 13.8257C19.6403 14.2678 19.2813 14.6268 18.8392 14.6268C18.3971 14.6268 18.0381 14.2678 18.0381 13.8257C18.0381 13.3835 18.3971 13.0246 18.8392 13.0246ZM19.5024 12.3614C19.5024 11.9193 19.8613 11.5603 20.3035 11.5603C20.7456 11.5603 21.1046 11.9193 21.1046 12.3614C21.1046 12.8035 20.7456 13.1625 20.3035 13.1625C19.8613 13.1625 19.5024 12.8035 19.5024 12.3614Z" fill="black"/>
</svg>
