<svg width="30" height="30" viewBox="0 0 30 30" fill="none" xmlns="http://www.w3.org/2000/svg">
<path d="M16.4024 9.05879C17.5233 9.05879 18.4318 8.1502 18.4318 7.0294C18.4318 5.90859 17.5233 5 16.4024 5C15.2816 5 14.373 5.90859 14.373 7.0294C14.373 8.1502 15.2816 9.05879 16.4024 9.05879Z" stroke="black" stroke-width="1.5" stroke-linecap="round" stroke-linejoin="round"/>
<path d="M13.9809 10.3442L10.624 14.5402L14.8201 18.7363L12.722 23.3518" stroke="black" stroke-width="1.5" stroke-linecap="round" stroke-linejoin="round"/>
<path d="M7.68652 11.6032L11.1232 8.24634L13.9805 10.3443L16.9178 13.7012H18.6648" stroke="black" stroke-width="1.5" stroke-linecap="round" stroke-linejoin="round"/>
<path d="M10.2045 17.8972L8.94567 18.7365H5.58887" stroke="black" stroke-width="1.5" stroke-linecap="round" stroke-linejoin="round"/>
<path d="M6.60352 24.8245L22.1367 22.7951V11.0881" stroke="black" stroke-width="1.5" stroke-linecap="round" stroke-linejoin="round"/>
<path d="M24.4106 9.05884L22.1372 11.0882L20.4619 12.6103" stroke="black" stroke-width="1.5" stroke-linecap="round" stroke-linejoin="round"/>
<path d="M24.4101 25L22.1367 22.7952" stroke="black" stroke-width="1.5" stroke-linecap="round" stroke-linejoin="round"/>
</svg>
