<svg width="30" height="30" viewBox="0 0 30 30" fill="none" xmlns="http://www.w3.org/2000/svg">
<path d="M7.03974 17.6728C8.32574 17.6728 9.3757 16.631 9.3757 15.3369C9.3757 14.0509 8.33387 13.009 7.03974 13.009C5.75374 13.009 4.71191 14.0509 4.71191 15.3369C4.71191 16.631 5.76188 17.6728 7.03974 17.6728Z" fill="black"/>
<path d="M20.1111 21.6854C20.2169 21.6122 20.3634 21.6366 20.4448 21.7342L20.8762 22.3284C20.9494 22.4342 20.925 22.5807 20.8274 22.6621L17.6612 24.9574C17.5554 25.0306 17.4089 25.0062 17.3275 24.9086L16.8961 24.3144C16.8229 24.2086 16.8473 24.0621 16.9449 23.9807L20.1111 21.6854Z" fill="black"/>
<path d="M16.538 18.7147L15.2765 16.5171L14.6172 16.9973L15.8788 19.2112L16.538 18.7147Z" fill="black"/>
<path d="M13.6086 13.5788L8.72507 5L7.78906 5.00814L12.9412 14.059L13.6086 13.5788Z" fill="black"/>
<path d="M18.2072 18.1124C18.4839 17.9089 18.8013 17.7543 19.1595 17.7543L23.693 17.7624C24.5721 17.7624 25.2883 18.4787 25.2883 19.3577C25.2883 20.2367 24.5802 20.953 23.693 20.953L19.9083 20.9448L15.0736 24.3552C13.3725 25.5842 12.3388 24.2331 12.3388 24.2331L8.54591 20.4402C7.91105 19.6751 8.04942 18.2263 8.80637 17.5833L14.0562 13.8474C14.5771 13.4079 15.3503 13.4812 15.7898 13.9939C16.2294 14.5149 16.1561 15.2962 15.6352 15.7276L12.2737 18.1856L14.691 20.5704L18.2072 18.1124Z" fill="black"/>
</svg>
