<svg width="30" height="30" viewBox="0 0 30 30" fill="none" xmlns="http://www.w3.org/2000/svg">
<path d="M4.34961 23.6658C4.65962 24.08 5.0619 24.4162 5.52453 24.6478C5.98716 24.8794 6.4974 25 7.01476 25C7.53212 25 8.04235 24.8794 8.50498 24.6478C8.96761 24.4162 9.36989 24.08 9.6799 23.6658C9.98991 24.08 10.3922 24.4162 10.8548 24.6478C11.3174 24.8794 11.8277 25 12.345 25C12.8624 25 13.3726 24.8794 13.8353 24.6478C14.2979 24.4162 14.7002 24.08 15.0102 23.6658C15.3192 24.0799 15.7206 24.4161 16.1824 24.6477C16.6443 24.8794 17.1538 25 17.6705 25C18.1871 25 18.6967 24.8794 19.1585 24.6477C19.6203 24.4161 20.0217 24.0799 20.3307 23.6658C20.6397 24.0799 21.0411 24.4161 21.5029 24.6477C21.9648 24.8794 22.4743 25 22.991 25C23.5077 25 24.0172 24.8794 24.479 24.6477C24.9409 24.4161 25.3423 24.0799 25.6513 23.6658" stroke="#020202" stroke-width="1.5" stroke-miterlimit="10"/>
<path d="M15.0196 14.7722C16.4916 14.7722 17.6848 13.579 17.6848 12.107C17.6848 10.6351 16.4916 9.44189 15.0196 9.44189C13.5477 9.44189 12.3545 10.6351 12.3545 12.107C12.3545 13.579 13.5477 14.7722 15.0196 14.7722Z" stroke="#020202" stroke-width="1.5" stroke-miterlimit="10"/>
<path d="M15.0195 5V6.77676" stroke="#020202" stroke-width="1.5" stroke-miterlimit="10"/>
<path d="M15.0195 17.4373V19.2238" stroke="#020202" stroke-width="1.5" stroke-miterlimit="10"/>
<path d="M22.1371 12.1069H20.3506" stroke="#020202" stroke-width="1.5" stroke-miterlimit="10"/>
<path d="M9.68985 12.1069H7.90332" stroke="#020202" stroke-width="1.5" stroke-miterlimit="10"/>
<path d="M20.0474 7.07935L18.7881 8.3387" stroke="#020202" stroke-width="1.5" stroke-miterlimit="10"/>
<path d="M11.2515 15.8752L9.99219 17.1346" stroke="#020202" stroke-width="1.5" stroke-miterlimit="10"/>
<path d="M20.0474 17.1346L18.7881 15.8752" stroke="#020202" stroke-width="1.5" stroke-miterlimit="10"/>
<path d="M11.2515 8.3387L9.99219 7.07935" stroke="#020202" stroke-width="1.5" stroke-miterlimit="10"/>
</svg>
