<svg width="30" height="30" viewBox="0 0 30 30" fill="none" xmlns="http://www.w3.org/2000/svg">
<path d="M9.54563 25H20.4547C21.178 25 21.8717 24.7127 22.3832 24.2012C22.8947 23.6897 23.182 22.996 23.182 22.2727V7.72727C23.182 7.00396 22.8947 6.31026 22.3832 5.7988C21.8717 5.28734 21.178 5 20.4547 5H9.54563C8.82231 5 8.12862 5.28734 7.61716 5.7988C7.1057 6.31026 6.81836 7.00396 6.81836 7.72727V22.2727C6.81836 22.996 7.1057 23.6897 7.61716 24.2012C8.12862 24.7127 8.82231 25 9.54563 25ZM21.3638 12.7273V17.2727H21.2438L20.3638 15.5027C20.256 15.2869 20.067 15.1228 19.8382 15.0464C19.6094 14.97 19.3596 14.9877 19.1438 15.0955C18.928 15.2032 18.7639 15.3923 18.6875 15.6211C18.6111 15.8499 18.6288 16.0997 18.7365 16.3155L19.2156 17.2727H17.7274V15C17.7274 14.7589 17.6317 14.5277 17.4612 14.3572C17.2907 14.1867 17.0595 14.0909 16.8184 14.0909C16.5773 14.0909 16.346 14.1867 16.1755 14.3572C16.005 14.5277 15.9093 14.7589 15.9093 15V17.2727H15.0002V15.9091C15.0002 15.668 14.9044 15.4368 14.7339 15.2663C14.5634 15.0958 14.3322 15 14.0911 15C13.85 15 13.6187 15.0958 13.4483 15.2663C13.2778 15.4368 13.182 15.668 13.182 15.9091V17.2727H8.63654V12.7273H21.3638ZM20.4547 23.1818H16.8184V21.3636C16.8184 21.1225 16.7226 20.8913 16.5521 20.7208C16.3816 20.5503 16.1504 20.4545 15.9093 20.4545C15.6682 20.4545 15.4369 20.5503 15.2664 20.7208C15.096 20.8913 15.0002 21.1225 15.0002 21.3636V23.1818H14.0911V21.3636C14.0911 21.1225 13.9953 20.8913 13.8248 20.7208C13.6543 20.5503 13.4231 20.4545 13.182 20.4545C12.9409 20.4545 12.7097 20.5503 12.5392 20.7208C12.3687 20.8913 12.2729 21.1225 12.2729 21.3636V23.1818H11.3638V22.2727C11.3638 22.0316 11.268 21.8004 11.0975 21.6299C10.9271 21.4594 10.6958 21.3636 10.4547 21.3636C10.2136 21.3636 9.98239 21.4594 9.8119 21.6299C9.64141 21.8004 9.54563 22.0316 9.54563 22.2727V23.1818C9.30453 23.1818 9.0733 23.086 8.90281 22.9156C8.73232 22.7451 8.63654 22.5138 8.63654 22.2727V19.0909H21.3638V22.2727C21.3638 22.5138 21.268 22.7451 21.0975 22.9156C20.9271 23.086 20.6958 23.1818 20.4547 23.1818ZM9.54563 6.81818H20.4547C20.6958 6.81818 20.9271 6.91396 21.0975 7.08445C21.268 7.25494 21.3638 7.48617 21.3638 7.72727V10.9091H17.6074L16.7274 9.13909C16.6197 8.9233 16.4306 8.75916 16.2018 8.68278C15.973 8.60641 15.7232 8.62404 15.5074 8.73182C15.2917 8.83959 15.1275 9.02868 15.0511 9.25747C14.9748 9.48626 14.9924 9.73603 15.1002 9.95182L15.5747 10.9091H14.0911V8.63636C14.0911 8.39526 13.9953 8.16403 13.8248 7.99354C13.6543 7.82305 13.4231 7.72727 13.182 7.72727C12.9409 7.72727 12.7097 7.82305 12.5392 7.99354C12.3687 8.16403 12.2729 8.39526 12.2729 8.63636V10.9091H11.3638V9.54545C11.3638 9.30435 11.268 9.07312 11.0975 8.90263C10.9271 8.73214 10.6958 8.63636 10.4547 8.63636C10.2136 8.63636 9.98239 8.73214 9.8119 8.90263C9.64141 9.07312 9.54563 9.30435 9.54563 9.54545V10.9091H8.63654V7.72727C8.63654 7.48617 8.73232 7.25494 8.90281 7.08445C9.0733 6.91396 9.30453 6.81818 9.54563 6.81818Z" fill="black"/>
</svg>
