<svg width="30" height="30" viewBox="0 0 30 30" fill="none" xmlns="http://www.w3.org/2000/svg">
<path fill-rule="evenodd" clip-rule="evenodd" d="M18.7759 19.8464C17.4768 21.5485 12.8165 21.6295 11.2408 19.9799C9.7652 21.6748 4.66389 21.8679 3 18.6259L3.99166 17.5389C5.47199 19.825 9.36234 20.0705 11.1001 17.5389C11.2101 17.5265 11.3207 17.5201 11.4315 17.5199C12.5614 19.4269 15.7557 19.8059 17.5626 18.5568C17.5435 16.1206 17.4863 8.78328 17.4863 8.21117C17.4863 3.40306 24.0203 3.71295 23.6436 8.66408L22.1895 8.79043C22.1895 6.25407 19.4935 6.38518 19.4911 8.23262C19.4911 8.73322 19.5411 15.9752 19.5578 18.1468C21.4029 19.6796 24.4899 19.465 26.0465 17.5937L27 18.4543C25.4219 21.7845 20.6615 21.682 18.7759 19.8464ZM14.6353 14.6951C13.1788 14.676 10.9523 14.6808 9.68415 14.6951C9.69846 16.061 9.71038 17.0789 9.71038 17.0789L7.73183 17.6605C7.73183 17.6605 7.6484 8.94537 7.6484 8.22308C7.6484 3.41497 14.2491 3.64382 13.8725 8.37565L12.354 8.67124C12.354 5.95848 9.63171 6.4996 9.63171 8.19448C9.63171 9.20282 9.64601 11.0789 9.66508 12.8476L16.4064 12.7714C16.4064 12.7714 16.7759 14.7189 14.6353 14.6951ZM11.1001 21.6319C11.2101 21.619 11.3207 21.6119 11.4315 21.6104C12.8093 23.9251 17.2551 23.9942 18.5137 21.5961H18.9261C20.5948 23.8131 24.2944 23.7988 26.0465 21.6939L27 22.5544C25.4315 25.8917 20.6711 25.7821 18.7855 23.9466C17.4863 25.6486 12.826 25.7273 11.2503 24.08C9.77474 25.7749 4.67342 25.9656 3.00954 22.7261L3.99166 21.6319C5.47199 23.9251 9.36234 24.1706 11.1001 21.6319Z" fill="black"/>
</svg>
