<svg width="30" height="30" viewBox="0 0 30 30" fill="none" xmlns="http://www.w3.org/2000/svg">
<path d="M25.408 17.7751V15.5699H22.5368C22.4485 14.6941 21.8403 13.9695 21.0264 13.7101V12.9899H19.7033V13.7101C18.8894 13.9696 18.2811 14.6941 18.1929 15.5699H16.2986V13.1829C16.2986 11.7311 15.3007 10.508 13.9549 10.1634C14.1451 9.8216 14.2538 9.4286 14.2538 9.01059V8.28948V6.96636V5H9.49627V6.96636V8.28944V9.01054C9.49627 9.42865 9.60506 9.8216 9.79523 10.1633C8.44941 10.508 7.45152 11.731 7.45152 13.1828V15.5699H4.59145V17.775H3.86426V19.0981H4.59145V25H25.4079V19.0981H26.1351V17.7751H25.408ZM20.3648 14.9304C20.7628 14.9304 21.0985 15.2022 21.1962 15.5699H19.5335C19.631 15.2022 19.9668 14.9304 20.3648 14.9304ZM10.8193 6.32307H12.9307V6.96636H10.8193V6.32307ZM10.8193 8.28944H12.9307V9.01054C12.9307 9.59268 12.4572 10.0663 11.875 10.0663C11.2929 10.0663 10.8193 9.59272 10.8193 9.01054V8.28944ZM8.7746 13.1829C8.7746 12.1939 9.57918 11.3894 10.5681 11.3894H11.2134V14.6187H12.5365V11.3894H13.1818C14.1708 11.3894 14.9754 12.1939 14.9754 13.1829V15.5699H8.7746V13.1829ZM24.0849 23.677H5.91453V19.0981H24.0848L24.0849 23.677ZM24.0849 17.7751H5.91453V16.893H7.45152H16.2985H18.1817H22.5479H24.0849V17.7751Z" fill="black"/>
</svg>
