<svg width="31" height="32" viewBox="0 0 31 32" fill="none" xmlns="http://www.w3.org/2000/svg">
<mask id="mask0_1269_20194" style="mask-type:luminance" maskUnits="userSpaceOnUse" x="0" y="0" width="31" height="32">
<path d="M30.9722 0.513916H0V31.4861H30.9722V0.513916Z" fill="white"/>
</mask>
<g mask="url(#mask0_1269_20194)">
<path d="M25.4659 16.6891V18.0657H6.19434V11.183C6.19434 11.0109 6.25903 10.845 6.37329 10.7191L6.43523 10.6592L10.8085 6.91432C11.2937 6.4986 11.9958 6.47452 12.5065 6.84136L12.6001 6.91432L16.9665 10.6599C17.0972 10.7721 17.1805 10.9283 17.2012 11.0969L17.2067 11.183V16.6891M11.7039 7.9598L7.57088 11.4989V16.6891H9.63569V13.2478C9.63569 12.8947 9.90136 12.6036 10.2434 12.5643L10.324 12.5595H13.077C13.4301 12.5595 13.7213 12.8245 13.7605 13.1666L13.7653 13.2478V16.6891H15.8301V11.4989L11.7039 7.9598ZM12.3888 13.936H11.0122V16.6891H12.3888V13.936Z" fill="black"/>
<path d="M21.3429 17.7462H22.7381L22.7298 6.36426H21.334L21.3429 17.7462Z" fill="black"/>
<path d="M21.5517 9.68998C20.9171 10.2372 19.8551 10.6598 18.7945 10.6969L18.5977 10.7004V9.32382C20.1903 9.32382 21.0362 8.44421 21.3046 7.11378L21.3191 7.025C21.3287 6.95066 21.3342 6.87082 21.337 6.79374L21.3342 6.72973L21.337 6.54252L21.3356 6.36426" fill="black"/>
<path d="M22.4718 9.64941C23.1456 10.2303 24.2992 10.6997 25.4541 10.6997V9.32317L25.2923 9.3211C23.8043 9.26329 23.0059 8.39882 22.7471 7.11382L22.7127 6.9624H22.1807L22.4718 9.64941Z" fill="black"/>
<path d="M22.5081 10.835L21.336 10.8955L21.3153 11.0222C21.0689 11.9252 20.2444 12.5584 18.5967 12.5584V13.9349L18.8073 13.9322C19.8555 13.9012 20.7 13.639 21.3367 13.2095L22.25 12.3237L22.5081 10.835Z" fill="black"/>
<path d="M22.7128 13.2096C23.3914 13.668 24.3068 13.9351 25.4528 13.9351V12.5585L25.2732 12.5558C23.7445 12.511 22.9654 11.893 22.7279 11.0237L22.1092 11.1035L21.5352 12.4161L22.7128 13.2096Z" fill="black"/>
<mask id="mask1_1269_20194" style="mask-type:alpha" maskUnits="userSpaceOnUse" x="-12" y="-12" width="56" height="56">
<path d="M43.3605 -11.875H-11.7012V43.1866H43.3605V-11.875Z" fill="black"/>
</mask>
<g mask="url(#mask1_1269_20194)">
<path d="M3.41362 19.6995C4.18379 19.7002 4.9285 19.9823 5.48944 20.5089C5.75787 20.7601 6.10957 20.9108 6.4833 20.9411L6.62509 20.9466V22.3231C5.85491 22.3231 5.1102 22.0403 4.54857 21.5137C4.24711 21.2309 3.83966 21.076 3.41362 21.076C2.98689 21.076 2.57943 21.2309 2.27797 21.5137C1.71634 22.0403 0.971633 22.3231 0.201459 22.3231C-0.513654 22.3231 -1.20743 22.0795 -1.75185 21.6232L-1.87505 21.5137C-2.1772 21.2309 -2.58397 21.076 -3.0107 21.076C-3.43743 21.076 -3.84419 21.2309 -4.14566 21.5137C-4.70729 22.0403 -5.45268 22.3231 -6.22286 22.3231C-6.99303 22.3231 -7.73774 22.0403 -8.29937 21.5137C-8.60083 21.2309 -9.0076 21.076 -9.43433 21.076C-9.86105 21.076 -10.2678 21.2309 -10.57 21.5137C-11.0917 22.0024 -11.771 22.2819 -12.482 22.319L-12.6465 22.3231V20.9466C-12.2672 20.9466 -11.9038 20.8241 -11.6155 20.5983L-11.5108 20.5089C-10.9492 19.9823 -10.2045 19.7002 -9.43433 19.6995C-8.66415 19.7002 -7.91944 19.9823 -7.35781 20.5089C-7.05635 20.7917 -6.64958 20.9466 -6.22286 20.9466C-5.79613 20.9466 -5.38936 20.7924 -5.08721 20.5089C-4.52558 19.983 -3.78087 19.7002 -3.0107 19.6995C-2.24052 19.7002 -1.49582 19.9823 -0.934187 20.5089C-0.632035 20.7917 -0.225268 20.9466 0.201459 20.9466C0.628187 20.9466 1.03495 20.7917 1.33642 20.5089C1.89805 19.9823 2.64275 19.7002 3.41362 19.6995Z" fill="black"/>
<path d="M22.0826 19.6995C22.8527 19.7002 23.5974 19.9823 24.1584 20.5089C24.4268 20.7601 24.7785 20.9108 25.1522 20.9411L25.294 20.9466V22.3231C24.5239 22.3231 23.7792 22.0403 23.2175 21.5137C22.9161 21.2309 22.5086 21.076 22.0826 21.076C21.6558 21.076 21.2484 21.2309 20.9469 21.5137C20.3853 22.0403 19.6406 22.3231 18.8704 22.3231C18.1553 22.3231 17.4615 22.0795 16.9171 21.6232L16.7939 21.5137C16.4917 21.2309 16.085 21.076 15.6582 21.076C15.2315 21.076 14.8248 21.2309 14.5233 21.5137C13.9617 22.0403 13.2163 22.3231 12.4461 22.3231C11.6759 22.3231 10.9312 22.0403 10.3696 21.5137C10.0681 21.2309 9.66135 21.076 9.23462 21.076C8.80789 21.076 8.40112 21.2309 8.09897 21.5137C7.57726 22.0024 6.89794 22.2819 6.18696 22.319L6.02246 22.3231V20.9466C6.4017 20.9466 6.7651 20.8241 7.05349 20.5983L7.15811 20.5089C7.71974 19.9823 8.46444 19.7002 9.23462 19.6995C10.0048 19.7002 10.7495 19.9823 11.3111 20.5089C11.6126 20.7917 12.0194 20.9466 12.4461 20.9466C12.8728 20.9466 13.2796 20.7924 13.5817 20.5089C14.1434 19.983 14.8881 19.7002 15.6582 19.6995C16.4284 19.7002 17.1731 19.9823 17.7348 20.5089C18.0369 20.7917 18.4437 20.9466 18.8704 20.9466C19.2971 20.9466 19.7039 20.7917 20.0054 20.5089C20.567 19.9823 21.3117 19.7002 22.0826 19.6995Z" fill="black"/>
<path d="M41.0103 19.6995C41.7805 19.7002 42.5252 19.9823 43.0861 20.5089C43.3545 20.7601 43.7063 20.9108 44.08 20.9411L44.2218 20.9466V22.3231C43.4516 22.3231 42.7069 22.0403 42.1453 21.5137C41.8438 21.2309 41.4363 21.076 41.0103 21.076C40.5836 21.076 40.1761 21.2309 39.8746 21.5137C39.313 22.0403 38.5683 22.3231 37.7981 22.3231C37.083 22.3231 36.3892 22.0795 35.8448 21.6232L35.7216 21.5137C35.4195 21.2309 35.0127 21.076 34.586 21.076C34.1593 21.076 33.7525 21.2309 33.451 21.5137C32.8894 22.0403 32.144 22.3231 31.3738 22.3231C30.6036 22.3231 29.8589 22.0403 29.2973 21.5137C28.9959 21.2309 28.5891 21.076 28.1624 21.076C27.7356 21.076 27.3289 21.2309 27.0267 21.5137C26.505 22.0024 25.8257 22.2819 25.1147 22.319L24.9502 22.3231V20.9466C25.3294 20.9466 25.6928 20.8241 25.9812 20.5983L26.0858 20.5089C26.6475 19.9823 27.3922 19.7002 28.1624 19.6995C28.9325 19.7002 29.6772 19.9823 30.2389 20.5089C30.5403 20.7917 30.9471 20.9466 31.3738 20.9466C31.8006 20.9466 32.2073 20.7924 32.5095 20.5089C33.0711 19.983 33.8158 19.7002 34.586 19.6995C35.3562 19.7002 36.1009 19.9823 36.6625 20.5089C36.9646 20.7917 37.3714 20.9466 37.7981 20.9466C38.2249 20.9466 38.6316 20.7917 38.9331 20.5089C39.4947 19.9823 40.2394 19.7002 41.0103 19.6995Z" fill="black"/>
</g>
<mask id="mask2_1269_20194" style="mask-type:alpha" maskUnits="userSpaceOnUse" x="-12" y="-12" width="56" height="56">
<path d="M43.3605 -11.875H-11.7012V43.1866H43.3605V-11.875Z" fill="black"/>
</mask>
<g mask="url(#mask2_1269_20194)">
<path d="M3.41362 22.8826C4.18379 22.8833 4.9285 23.1654 5.48944 23.692C5.75787 23.9432 6.10957 24.0939 6.4833 24.1242L6.62509 24.1297V25.5063C5.85491 25.5063 5.1102 25.2234 4.54857 24.6969C4.24711 24.414 3.83966 24.2591 3.41362 24.2591C2.98689 24.2591 2.57943 24.414 2.27797 24.6969C1.71634 25.2234 0.971633 25.5063 0.201459 25.5063C-0.513654 25.5063 -1.20743 25.2626 -1.75185 24.8063L-1.87505 24.6969C-2.1772 24.414 -2.58397 24.2591 -3.0107 24.2591C-3.43743 24.2591 -3.84419 24.414 -4.14566 24.6969C-4.70729 25.2234 -5.45268 25.5063 -6.22286 25.5063C-6.99303 25.5063 -7.73774 25.2234 -8.29937 24.6969C-8.60083 24.414 -9.0076 24.2591 -9.43433 24.2591C-9.86105 24.2591 -10.2678 24.414 -10.57 24.6969C-11.0917 25.1855 -11.771 25.465 -12.482 25.5021L-12.6465 25.5063V24.1297C-12.2672 24.1297 -11.9038 24.0072 -11.6155 23.7814L-11.5108 23.692C-10.9492 23.1654 -10.2045 22.8833 -9.43433 22.8826C-8.66415 22.8833 -7.91944 23.1654 -7.35781 23.692C-7.05635 23.9749 -6.64958 24.1297 -6.22286 24.1297C-5.79613 24.1297 -5.38936 23.9755 -5.08721 23.692C-4.52558 23.1661 -3.78087 22.8833 -3.0107 22.8826C-2.24052 22.8833 -1.49582 23.1654 -0.934187 23.692C-0.632035 23.9749 -0.225268 24.1297 0.201459 24.1297C0.628187 24.1297 1.03495 23.9749 1.33642 23.692C1.89805 23.1654 2.64275 22.8833 3.41362 22.8826Z" fill="black"/>
<path d="M22.0826 22.8826C22.8527 22.8833 23.5974 23.1654 24.1584 23.692C24.4268 23.9432 24.7785 24.0939 25.1522 24.1242L25.294 24.1297V25.5063C24.5239 25.5063 23.7792 25.2234 23.2175 24.6969C22.9161 24.414 22.5086 24.2591 22.0826 24.2591C21.6558 24.2591 21.2484 24.414 20.9469 24.6969C20.3853 25.2234 19.6406 25.5063 18.8704 25.5063C18.1553 25.5063 17.4615 25.2626 16.9171 24.8063L16.7939 24.6969C16.4917 24.414 16.085 24.2591 15.6582 24.2591C15.2315 24.2591 14.8248 24.414 14.5233 24.6969C13.9617 25.2234 13.2163 25.5063 12.4461 25.5063C11.6759 25.5063 10.9312 25.2234 10.3696 24.6969C10.0681 24.414 9.66135 24.2591 9.23462 24.2591C8.80789 24.2591 8.40112 24.414 8.09897 24.6969C7.57726 25.1855 6.89794 25.465 6.18696 25.5021L6.02246 25.5063V24.1297C6.4017 24.1297 6.7651 24.0072 7.05349 23.7814L7.15811 23.692C7.71974 23.1654 8.46444 22.8833 9.23462 22.8826C10.0048 22.8833 10.7495 23.1654 11.3111 23.692C11.6126 23.9749 12.0194 24.1297 12.4461 24.1297C12.8728 24.1297 13.2796 23.9755 13.5817 23.692C14.1434 23.1661 14.8881 22.8833 15.6582 22.8826C16.4284 22.8833 17.1731 23.1654 17.7348 23.692C18.0369 23.9749 18.4437 24.1297 18.8704 24.1297C19.2971 24.1297 19.7039 23.9749 20.0054 23.692C20.567 23.1654 21.3117 22.8833 22.0826 22.8826Z" fill="black"/>
<path d="M41.0103 22.8826C41.7805 22.8833 42.5252 23.1654 43.0861 23.692C43.3545 23.9432 43.7063 24.0939 44.08 24.1242L44.2218 24.1297V25.5063C43.4516 25.5063 42.7069 25.2234 42.1453 24.6969C41.8438 24.414 41.4363 24.2591 41.0103 24.2591C40.5836 24.2591 40.1761 24.414 39.8746 24.6969C39.313 25.2234 38.5683 25.5063 37.7981 25.5063C37.083 25.5063 36.3892 25.2626 35.8448 24.8063L35.7216 24.6969C35.4195 24.414 35.0127 24.2591 34.586 24.2591C34.1593 24.2591 33.7525 24.414 33.451 24.6969C32.8894 25.2234 32.144 25.5063 31.3738 25.5063C30.6036 25.5063 29.8589 25.2234 29.2973 24.6969C28.9959 24.414 28.5891 24.2591 28.1624 24.2591C27.7356 24.2591 27.3289 24.414 27.0267 24.6969C26.505 25.1855 25.8257 25.465 25.1147 25.5021L24.9502 25.5063V24.1297C25.3294 24.1297 25.6928 24.0072 25.9812 23.7814L26.0858 23.692C26.6475 23.1654 27.3922 22.8833 28.1624 22.8826C28.9325 22.8833 29.6772 23.1654 30.2389 23.692C30.5403 23.9749 30.9471 24.1297 31.3738 24.1297C31.8006 24.1297 32.2073 23.9755 32.5095 23.692C33.0711 23.1661 33.8158 22.8833 34.586 22.8826C35.3562 22.8833 36.1009 23.1654 36.6625 23.692C36.9646 23.9749 37.3714 24.1297 37.7981 24.1297C38.2249 24.1297 38.6316 23.9749 38.9331 23.692C39.4947 23.1654 40.2394 22.8833 41.0103 22.8826Z" fill="black"/>
</g>
</g>
</svg>
