<svg width="19" height="17" viewBox="0 0 19 17" fill="none" xmlns="http://www.w3.org/2000/svg">
<path d="M1.5 7.75C1.08579 7.75 0.75 8.08579 0.75 8.5C0.75 8.91421 1.08579 9.25 1.5 9.25V7.75ZM18.0303 9.03033C18.3232 8.73744 18.3232 8.26256 18.0303 7.96967L13.2574 3.1967C12.9645 2.90381 12.4896 2.90381 12.1967 3.1967C11.9038 3.48959 11.9038 3.96447 12.1967 4.25736L16.4393 8.5L12.1967 12.7426C11.9038 13.0355 11.9038 13.5104 12.1967 13.8033C12.4896 14.0962 12.9645 14.0962 13.2574 13.8033L18.0303 9.03033ZM1.5 9.25H17.5V7.75H1.5V9.25Z" fill="#071D1D"/>
</svg>
