<svg width="19" height="16" viewBox="0 0 19 16" fill="none" xmlns="http://www.w3.org/2000/svg">
<path d="M9.35645 0C5.20645 0 1.85645 3.35 1.85645 7.5C1.85645 9.2 2.40645 10.8 3.45645 12.1L2.40645 15.3C2.35645 15.5 2.40645 15.7 2.55645 15.85C2.60645 15.95 2.75645 16 2.85645 16C2.90645 16 3.00645 16 3.05645 15.95L6.50645 14.4C7.40645 14.8 8.35645 15 9.35645 15C13.5064 15 16.8564 11.65 16.8564 7.5C16.8564 3.35 13.5064 0 9.35645 0Z" fill="#25D366"/>
<path d="M8.54008 4.38215L8.8105 4.8667C9.05454 5.30399 8.95658 5.87763 8.57221 6.262C8.57221 6.262 8.10603 6.72825 8.95129 7.57354C9.79629 8.41854 10.2628 7.95262 10.2628 7.95262C10.6472 7.56825 11.2208 7.47029 11.6581 7.71433L12.1427 7.98475C12.803 8.35325 12.881 9.27925 12.3006 9.85967C11.9518 10.2084 11.5246 10.4798 11.0523 10.4977C10.2572 10.5278 8.90704 10.3266 7.55262 8.97221C6.19822 7.61779 5.997 6.26759 6.02714 5.47253C6.04505 5.00024 6.31641 4.573 6.66517 4.22425C7.24556 3.64386 8.17157 3.72184 8.54008 4.38215Z" fill="white"/>
</svg>
