<svg width="44" height="44" viewBox="0 0 44 44" fill="none" xmlns="http://www.w3.org/2000/svg">
<g clip-path="url(#clip0_172_480)">
<path d="M15.7583 13.5142C15.7584 12.9839 15.9691 12.4753 16.3441 12.1003C16.7191 11.7253 17.2276 11.5146 17.758 11.5145L30.4859 11.5145C31.0162 11.5146 31.5248 11.7253 31.8998 12.1003C32.2748 12.4753 32.4855 12.9839 32.4856 13.5142V26.2421C32.4765 26.7664 32.2618 27.2662 31.8878 27.6338C31.5137 28.0014 31.0103 28.2074 30.4859 28.2074C29.9615 28.2074 29.458 28.0014 29.084 27.6338C28.71 27.2662 28.4953 26.7664 28.4862 26.2421L28.3646 18.4639L14.9295 31.899C14.5545 32.274 14.0458 32.4848 13.5153 32.4848C12.9849 32.4848 12.4762 32.274 12.1011 31.899C11.726 31.5239 11.5153 31.0152 11.5153 30.4848C11.5153 29.9543 11.726 29.4456 12.1011 29.0705L25.5361 15.6355L17.758 15.5139C17.2276 15.5138 16.7191 15.3031 16.3441 14.9281C15.9691 14.5531 15.7584 14.0445 15.7583 13.5142Z" fill="white"/>
</g>
<defs>
<clipPath id="clip0_172_480">
<rect width="30" height="30" fill="white" transform="translate(0.787109 22) rotate(-45)"/>
</clipPath>
</defs>
</svg>
