<svg width="20" height="20" viewBox="0 0 20 20" fill="none" xmlns="http://www.w3.org/2000/svg">
<g clip-path="url(#clip0_223_1303)">
<path fill-rule="evenodd" clip-rule="evenodd" d="M2.49935 4.16602C2.70346 4.16604 2.90046 4.24098 3.05299 4.37661C3.20552 4.51224 3.30297 4.69914 3.32685 4.90185L3.33268 4.99935V10.8327H9.16602V6.66602C9.16604 6.4619 9.24098 6.2649 9.37661 6.11237C9.51224 5.95984 9.69914 5.8624 9.90185 5.83852L9.99935 5.83268H15.8327C16.4704 5.83265 17.0839 6.07629 17.5479 6.51375C18.0119 6.95122 18.2911 7.54944 18.3285 8.18602L18.3327 8.33268V14.9993C18.3324 15.2117 18.2511 15.416 18.1053 15.5705C17.9595 15.7249 17.7602 15.8179 17.5482 15.8303C17.3362 15.8428 17.1274 15.7738 16.9645 15.6375C16.8016 15.5011 16.6969 15.3078 16.6718 15.0968L16.666 14.9993V12.4993H3.33268V14.9993C3.33245 15.2117 3.25112 15.416 3.10531 15.5705C2.9595 15.7249 2.76022 15.8179 2.54819 15.8303C2.33615 15.8428 2.12737 15.7738 1.96449 15.6375C1.80161 15.5011 1.69694 15.3078 1.67185 15.0968L1.66602 14.9993V4.99935C1.66602 4.77834 1.75381 4.56637 1.91009 4.41009C2.06637 4.25381 2.27834 4.16602 2.49935 4.16602ZM6.24935 5.83268C6.80188 5.83268 7.33179 6.05218 7.72249 6.44288C8.11319 6.83358 8.33268 7.36348 8.33268 7.91602C8.33268 8.46855 8.11319 8.99845 7.72249 9.38915C7.33179 9.77986 6.80188 9.99935 6.24935 9.99935C5.69681 9.99935 5.16691 9.77986 4.77621 9.38915C4.38551 8.99845 4.16602 8.46855 4.16602 7.91602C4.16602 7.36348 4.38551 6.83358 4.77621 6.44288C5.16691 6.05218 5.69681 5.83268 6.24935 5.83268Z" fill="#9f3517" />
</g>
<defs>
<clipPath id="clip0_223_1303">
<rect width="20" height="20" fill="white"/>
</clipPath>
</defs>
</svg>
