<svg width="12" height="12" viewBox="0 0 12 12" fill="none" xmlns="http://www.w3.org/2000/svg">
<g clip-path="url(#clip0_172_579)">
<path d="M6 0.9375C4.99873 0.9375 4.01995 1.23441 3.18743 1.79069C2.3549 2.34696 1.70603 3.13761 1.32286 4.06267C0.939694 4.98772 0.839439 6.00562 1.03478 6.98765C1.23011 7.96967 1.71227 8.87173 2.42027 9.57973C3.12828 10.2877 4.03033 10.7699 5.01236 10.9652C5.99439 11.1606 7.01229 11.0603 7.93734 10.6771C8.86239 10.294 9.65304 9.6451 10.2093 8.81257C10.7656 7.98005 11.0625 7.00127 11.0625 6C11.061 4.6578 10.5272 3.371 9.57809 2.42192C8.62901 1.47284 7.3422 0.938989 6 0.9375ZM6 9.9375C5.22124 9.9375 4.45996 9.70657 3.81244 9.27391C3.16493 8.84125 2.66025 8.2263 2.36223 7.50682C2.06421 6.78733 1.98623 5.99563 2.13816 5.23183C2.29009 4.46803 2.6651 3.76644 3.21577 3.21577C3.76644 2.6651 4.46803 2.29009 5.23183 2.13816C5.99563 1.98623 6.78733 2.0642 7.50682 2.36222C8.2263 2.66024 8.84126 3.16492 9.27391 3.81244C9.70657 4.45996 9.9375 5.22124 9.9375 6C9.93639 7.04395 9.52118 8.04482 8.783 8.783C8.04482 9.52118 7.04395 9.93638 6 9.9375ZM9.1875 6C9.1875 6.14918 9.12824 6.29226 9.02275 6.39775C8.91726 6.50324 8.77419 6.5625 8.625 6.5625H6C5.85082 6.5625 5.70774 6.50324 5.60225 6.39775C5.49677 6.29226 5.4375 6.14918 5.4375 6V3.375C5.4375 3.22582 5.49677 3.08274 5.60225 2.97725C5.70774 2.87176 5.85082 2.8125 6 2.8125C6.14919 2.8125 6.29226 2.87176 6.39775 2.97725C6.50324 3.08274 6.5625 3.22582 6.5625 3.375V5.4375H8.625C8.77419 5.4375 8.91726 5.49676 9.02275 5.60225C9.12824 5.70774 9.1875 5.85082 9.1875 6Z" fill="#000"/>
</g>
<defs>
<clipPath id="clip0_172_579">
<rect width="12" height="12" fill="white"/>
</clipPath>
</defs>
</svg>
