<svg width="20" height="20" viewBox="0 0 20 20" fill="none" xmlns="http://www.w3.org/2000/svg">
<g clip-path="url(#clip0_207_3147)">
<path d="M9.99935 1.66602C14.6018 1.66602 18.3327 5.39685 18.3327 9.99935C18.3327 14.6018 14.6018 18.3327 9.99935 18.3327C5.39685 18.3327 1.66602 14.6018 1.66602 9.99935C1.66602 5.39685 5.39685 1.66602 9.99935 1.66602ZM9.99935 3.33268C8.23124 3.33268 6.53555 4.03506 5.2853 5.2853C4.03506 6.53555 3.33268 8.23124 3.33268 9.99935C3.33268 11.7675 4.03506 13.4632 5.2853 14.7134C6.53555 15.9636 8.23124 16.666 9.99935 16.666C11.7675 16.666 13.4632 15.9636 14.7134 14.7134C15.9636 13.4632 16.666 11.7675 16.666 9.99935C16.666 8.23124 15.9636 6.53555 14.7134 5.2853C13.4632 4.03506 11.7675 3.33268 9.99935 3.33268ZM9.99935 4.99935C10.2035 4.99938 10.4005 5.07431 10.553 5.20994C10.7055 5.34558 10.803 5.53247 10.8268 5.73518L10.8327 5.83268V9.65435L13.0885 11.9102C13.238 12.0601 13.3247 12.2614 13.3312 12.473C13.3377 12.6846 13.2633 12.8908 13.1233 13.0496C12.9833 13.2084 12.7881 13.3079 12.5773 13.328C12.3665 13.3481 12.156 13.2872 11.9885 13.1577L11.9102 13.0885L9.41018 10.5885C9.28066 10.4589 9.19748 10.2902 9.17352 10.1085L9.16602 9.99935V5.83268C9.16602 5.61167 9.25381 5.39971 9.41009 5.24343C9.56637 5.08715 9.77833 4.99935 9.99935 4.99935Z" fill="#C36247"/>
</g>
<defs>
<clipPath id="clip0_207_3147">
<rect width="20" height="20" fill="white"/>
</clipPath>
</defs>
</svg>
