<svg width="40" height="40" viewBox="0 0 40 40" fill="none" xmlns="http://www.w3.org/2000/svg">
<path d="M33.334 26.6673V6.66732H13.334V26.6673H33.334ZM36.6673 26.6673C36.6673 27.5514 36.3161 28.3992 35.691 29.0243C35.0659 29.6495 34.218 30.0007 33.334 30.0007H13.334C12.4499 30.0007 11.6021 29.6495 10.977 29.0243C10.3518 28.3992 10.0007 27.5514 10.0007 26.6673V6.66732C10.0007 4.81732 11.484 3.33398 13.334 3.33398H33.334C34.218 3.33398 35.0659 3.68517 35.691 4.31029C36.3161 4.93542 36.6673 5.78326 36.6673 6.66732V26.6673ZM26.6673 33.334V36.6673H6.66732C5.78326 36.6673 4.93542 36.3161 4.31029 35.691C3.68517 35.0659 3.33398 34.218 3.33398 33.334V11.6673H6.66732V33.334H26.6673Z" fill="white"/>
</svg>
