<svg width="22" height="20" viewBox="0 0 22 20" fill="none" xmlns="http://www.w3.org/2000/svg">
<path fill-rule="evenodd" clip-rule="evenodd" d="M9.30962 4.57776C9.95917 3.60156 9.79594 2.29691 8.92588 1.51087C8.05582 0.72483 6.74133 0.694455 5.83588 1.43947C4.93045 2.18448 4.70709 3.4802 5.31086 4.48536C5.91461 5.49052 7.1634 5.90199 8.2464 5.4526C8.67917 5.27202 9.0491 4.96768 9.30962 4.57776Z" stroke="#6F6F6F" stroke-linecap="round" stroke-linejoin="round"/>
<path d="M1 3.40039H5" stroke="#6F6F6F" stroke-linecap="round" stroke-linejoin="round"/>
<path d="M10 3.40039H21" stroke="#6F6F6F" stroke-linecap="round" stroke-linejoin="round"/>
<path fill-rule="evenodd" clip-rule="evenodd" d="M12.6904 11.3112C12.0408 10.335 12.2041 9.03031 13.0741 8.24427C13.9442 7.45823 15.2587 7.42785 16.1641 8.17287C17.0696 8.91788 17.2929 10.2136 16.6891 11.2188C16.0854 12.2239 14.8366 12.6354 13.7536 12.186C13.3208 12.0054 12.9509 11.7011 12.6904 11.3112Z" stroke="#6F6F6F" stroke-linecap="round" stroke-linejoin="round"/>
<path d="M21 10.1338H17" stroke="#6F6F6F" stroke-linecap="round" stroke-linejoin="round"/>
<path d="M12 10.1338H1" stroke="#6F6F6F" stroke-linecap="round" stroke-linejoin="round"/>
<path fill-rule="evenodd" clip-rule="evenodd" d="M9.30962 18.0441C9.95917 17.0679 9.79594 15.7632 8.92588 14.9772C8.05582 14.1911 6.74133 14.1608 5.83588 14.9058C4.93045 15.6508 4.70709 16.9465 5.31086 17.9517C5.91461 18.9568 7.1634 19.3683 8.2464 18.9189C8.67917 18.7383 9.0491 18.434 9.30962 18.0441Z" stroke="#6F6F6F" stroke-linecap="round" stroke-linejoin="round"/>
<path d="M1 16.8667H5" stroke="#6F6F6F" stroke-linecap="round" stroke-linejoin="round"/>
<path d="M10 16.8667H21" stroke="#6F6F6F" stroke-linecap="round" stroke-linejoin="round"/>
</svg>
