<svg width="60" height="60" viewBox="0 0 60 60" fill="none" xmlns="http://www.w3.org/2000/svg">
<path d="M42.5 10C41.837 10 41.2011 9.73661 40.7322 9.26777C40.2634 8.79893 40 8.16304 40 7.5C40 6.83696 40.2634 6.20107 40.7322 5.73223C41.2011 5.26339 41.837 5 42.5 5H52.5C53.163 5 53.7989 5.26339 54.2678 5.73223C54.7366 6.20107 55 6.83696 55 7.5V17.5C55 18.163 54.7366 18.7989 54.2678 19.2678C53.7989 19.7366 53.163 20 52.5 20C51.837 20 51.2011 19.7366 50.7322 19.2678C50.2634 18.7989 50 18.163 50 17.5V13.535L35.5175 28.0175C35.0487 28.4862 34.4129 28.7495 33.75 28.7495C33.0871 28.7495 32.4513 28.4862 31.9825 28.0175L25 21.035L11.7675 34.2675C11.296 34.7229 10.6645 34.9749 10.009 34.9692C9.3535 34.9635 8.72647 34.7006 8.26295 34.237C7.79943 33.7735 7.53651 33.1465 7.53082 32.491C7.52512 31.8355 7.7771 31.204 8.2325 30.7325L23.2325 15.7325C23.7013 15.2638 24.3371 15.0005 25 15.0005C25.6629 15.0005 26.2987 15.2638 26.7675 15.7325L33.75 22.715L46.465 10H42.5ZM12.5 45V52.5C12.5 53.163 12.2366 53.7989 11.7678 54.2678C11.2989 54.7366 10.663 55 10 55C9.33696 55 8.70107 54.7366 8.23223 54.2678C7.76339 53.7989 7.5 53.163 7.5 52.5V45C7.5 44.337 7.76339 43.7011 8.23223 43.2322C8.70107 42.7634 9.33696 42.5 10 42.5C10.663 42.5 11.2989 42.7634 11.7678 43.2322C12.2366 43.7011 12.5 44.337 12.5 45ZM25 35C25 34.337 24.7366 33.7011 24.2678 33.2322C23.7989 32.7634 23.163 32.5 22.5 32.5C21.837 32.5 21.2011 32.7634 20.7322 33.2322C20.2634 33.7011 20 34.337 20 35V52.5C20 53.163 20.2634 53.7989 20.7322 54.2678C21.2011 54.7366 21.837 55 22.5 55C23.163 55 23.7989 54.7366 24.2678 54.2678C24.7366 53.7989 25 53.163 25 52.5V35ZM35 37.5C35.663 37.5 36.2989 37.7634 36.7678 38.2322C37.2366 38.7011 37.5 39.337 37.5 40V52.5C37.5 53.163 37.2366 53.7989 36.7678 54.2678C36.2989 54.7366 35.663 55 35 55C34.337 55 33.7011 54.7366 33.2322 54.2678C32.7634 53.7989 32.5 53.163 32.5 52.5V40C32.5 39.337 32.7634 38.7011 33.2322 38.2322C33.7011 37.7634 34.337 37.5 35 37.5ZM50 27.5C50 26.837 49.7366 26.2011 49.2678 25.7322C48.7989 25.2634 48.163 25 47.5 25C46.837 25 46.2011 25.2634 45.7322 25.7322C45.2634 26.2011 45 26.837 45 27.5V52.5C45 53.163 45.2634 53.7989 45.7322 54.2678C46.2011 54.7366 46.837 55 47.5 55C48.163 55 48.7989 54.7366 49.2678 54.2678C49.7366 53.7989 50 53.163 50 52.5V27.5Z" fill="#C36247"/>
</svg>
