<svg width="60" height="60" viewBox="0 0 60 60" fill="none" xmlns="http://www.w3.org/2000/svg">
<path d="M48.75 11.25C46.7069 13.2043 44.2773 14.7091 41.6175 15.6675C38.8125 16.1625 31.05 12.5625 27.225 16.2375C26.5875 16.875 25.8 17.5125 24.975 18.15C23.175 17.3625 20.4 16.1625 18.375 15C16.35 13.8375 11.25 11.25 11.25 11.25L0 24.375C0 24.375 2.775 28.125 4.5 30.6C5.625 32.25 7.0125 34.7625 7.9125 36.45L6.6375 37.95C6.33435 38.5571 6.2257 39.2428 6.32635 39.9139C6.42701 40.5849 6.73208 41.2086 7.2 41.7C7.74159 42.1083 8.40174 42.3286 9.08001 42.3272C9.75828 42.3259 10.4175 42.103 10.9575 41.6925C10.757 41.9272 10.6053 42.1996 10.5111 42.4936C10.417 42.7876 10.3824 43.0974 10.4093 43.4049C10.4361 43.7124 10.524 44.0115 10.6677 44.2848C10.8114 44.558 11.0081 44.7998 11.2462 44.9963C11.8197 45.3284 12.4708 45.5027 13.1335 45.5014C13.7962 45.5001 14.4467 45.3232 15.0187 44.9888C14.5903 45.5228 14.3558 46.1865 14.3538 46.8712C14.3518 47.5558 14.5822 48.2209 15.0075 48.7575C15.5602 48.9494 16.1498 49.0107 16.7302 48.9366C17.3106 48.8624 17.8658 48.6548 18.3525 48.33C18.1089 48.9039 18.0455 49.5384 18.1707 50.1492C18.296 50.76 18.6039 51.3183 19.0537 51.75C19.6885 52.0294 20.3834 52.1442 21.0742 52.0839C21.765 52.0236 22.4295 51.7901 23.0062 51.405L24.9412 49.6538C26.7112 51.4163 29.1525 52.5075 31.8487 52.5075L32.0775 52.5037C32.9662 52.4283 33.8175 52.1124 34.5403 51.5898C35.263 51.0672 35.8299 50.3578 36.18 49.5375C36.7275 49.7475 37.35 49.89 38.01 49.89C38.895 49.89 39.7162 49.635 40.41 49.1963C42.6037 47.745 42.0787 46.62 42.0787 46.62C42.8588 46.9558 43.7253 47.0354 44.5535 46.8474C45.3817 46.6594 46.1289 46.2134 46.6875 45.5737C47.268 44.9799 47.634 44.2095 47.7278 43.3844C47.8215 42.5593 47.6375 41.7264 47.205 41.0175C47.229 41.0308 47.2563 41.0373 47.2837 41.0362C48.8625 41.0362 50.235 40.1663 50.9512 38.8838C51.3051 37.9725 51.4249 36.9871 51.2998 36.0175C51.1747 35.048 50.8086 34.1253 50.235 33.3337L50.2462 33.3525C53.3212 32.7525 53.2087 31.215 54.7087 28.965C56.1272 27.1272 57.8948 25.5877 59.91 24.435L48.75 11.25ZM48.5625 37.725C46.9125 39.375 45.6375 38.6625 42.825 36.525C40.0125 34.3875 34.425 30.375 34.425 30.375C34.6537 31.5188 35.1825 32.5125 35.9287 33.3037C37.125 34.65 40.6875 37.725 42.375 39.3C43.425 40.275 46.125 42.225 44.55 43.725C42.975 45.225 41.7375 43.725 39.15 41.625C36.5625 39.525 30.7875 34.35 30.7875 34.35C30.7564 34.846 30.8305 35.3429 31.005 35.8083C31.1795 36.2736 31.4504 36.6968 31.8 37.05C32.4375 37.8 36 41.25 37.5 42.825C39 44.4 40.3125 45.3375 39.0375 46.575C37.7625 47.8125 35.175 45.8625 33.75 44.4C31.5375 42.2625 27.15 38.2875 27.15 38.2875L27.1462 38.4862C27.1462 39.5512 27.5137 40.5262 28.1325 41.2987C29.2125 42.7162 31.3125 44.5537 32.5875 45.9787C33.8625 47.4037 34.6125 48.6037 32.5875 49.7287C30.5625 50.8537 27.5625 48.0788 26.25 46.7288V46.7212C26.2541 46.3502 26.1205 45.9908 25.875 45.7125C25.4256 45.2984 24.8722 45.0141 24.2738 44.8899C23.6754 44.7658 23.0546 44.8064 22.4775 45.0075C22.7143 44.7947 22.9041 44.5348 23.0347 44.2444C23.1654 43.954 23.2339 43.6396 23.236 43.3212C23.2382 43.0028 23.1738 42.6875 23.047 42.3954C22.9203 42.1033 22.734 41.8409 22.5 41.625C22.0078 41.252 21.4069 41.0505 20.7894 41.0512C20.1718 41.0519 19.5714 41.2547 19.08 41.6287C19.3285 41.3914 19.5203 41.1011 19.6412 40.7794C19.7621 40.4578 19.809 40.113 19.7784 39.7708C19.7477 39.4285 19.6404 39.0975 19.4643 38.8024C19.2882 38.5073 19.0479 38.2557 18.7612 38.0662C18.0899 37.6444 17.3022 37.4463 16.5112 37.5002C15.7202 37.5541 14.9666 37.8573 14.3587 38.3662C14.765 37.8738 14.9653 37.2435 14.9178 36.6069C14.8703 35.9703 14.5786 35.3766 14.1037 34.95C13.5124 34.4028 12.7605 34.0607 11.9594 33.9742C11.1584 33.8878 10.3508 34.0616 9.65625 34.47L7.1625 30.2588C5.4375 27.5213 3.4125 24.6713 3.4125 24.6713L11.9625 14.2838C11.9625 14.2838 15 16.1588 17.5125 17.5838C18.75 18.2963 20.8875 19.2337 22.5 19.9838C19.95 21.8962 17.8125 23.7338 18.45 25.0088C19.5852 25.8263 20.9432 26.2773 22.342 26.3015C23.7408 26.3256 25.1135 25.9217 26.2762 25.1437C27.7671 24.1499 29.5207 23.6237 31.3125 23.6325C32.6138 23.6325 33.8512 23.9025 34.9725 24.3938C37.05 25.7963 40.875 29.2462 44.3625 31.4212C48.75 34.6087 49.6125 36.6712 48.5625 37.7213V37.725Z" fill="#C36247"/>
</svg>
