<svg width="18" height="18" viewBox="0 0 18 18" fill="none" xmlns="http://www.w3.org/2000/svg">
<path d="M16.5 5.65039V12.7491C16.5 13.323 16.2808 13.8753 15.887 14.2928C15.4933 14.7104 14.9549 14.9617 14.382 14.9954L14.25 14.9991H3.75C3.17609 14.9992 2.62386 14.7799 2.2063 14.3862C1.78874 13.9925 1.53742 13.4541 1.50375 12.8811L1.5 12.7491V5.65039L8.58375 10.3731L8.67075 10.4226C8.77328 10.4727 8.88589 10.4988 9 10.4988C9.11411 10.4988 9.22672 10.4727 9.32925 10.4226L9.41625 10.3731L16.5 5.65039Z" fill="#C36247"/>
<path d="M14.2502 3C15.0602 3 15.7705 3.4275 16.1665 4.07025L9.00023 8.84775L1.83398 4.07025C2.02208 3.76487 2.28045 3.50888 2.58756 3.32362C2.89467 3.13836 3.24162 3.0292 3.59948 3.00525L3.75023 3H14.2502Z" fill="#C36247"/>
</svg>
