<svg width="30" height="30" viewBox="0 0 30 30" fill="none" xmlns="http://www.w3.org/2000/svg">
<g clip-path="url(#clip0_224_1405)">
<path fill-rule="evenodd" clip-rule="evenodd" d="M16.9825 2.5C17.5694 2.50014 18.1376 2.70679 18.5875 3.08375L18.75 3.2325L24.2675 8.75C24.6825 9.16503 24.9383 9.71285 24.99 10.2975L25 10.5175V25C25.0002 25.6307 24.762 26.2382 24.3331 26.7007C23.9043 27.1632 23.3164 27.4464 22.6875 27.4938L22.5 27.5H7.5C6.86928 27.5002 6.26179 27.262 5.79932 26.8331C5.33684 26.4043 5.05355 25.8164 5.00625 25.1875L5 25V5C4.9998 4.36928 5.23801 3.76179 5.66687 3.29931C6.09573 2.83684 6.68356 2.55355 7.3125 2.50625L7.5 2.5H16.9825ZM15 5H7.5V25H22.5V12.5H16.875C16.4089 12.5 15.9595 12.3264 15.6145 12.013C15.2694 11.6996 15.0535 11.269 15.0087 10.805L15 10.625V5ZM16.235 14.81C16.5342 16.7138 17.5298 18.4387 19.0287 19.65C20.1375 20.5462 19.1237 22.3012 17.7937 21.79C15.9956 21.0976 14.0044 21.0976 12.2063 21.79C10.875 22.3025 9.86125 20.5462 10.97 19.65C12.4689 18.4387 13.4645 16.7138 13.7638 14.81C13.9862 13.4012 16.0138 13.4025 16.235 14.81ZM14.9975 17.69L14.1375 19.185H15.8625L14.9975 17.69ZM17.5 5.5175V10H21.9825L17.5 5.5175Z" fill="white"/>
</g>
<defs>
<clipPath id="clip0_224_1405">
<rect width="30" height="30" fill="white"/>
</clipPath>
</defs>
</svg>
