<svg width="30" height="30" viewBox="0 0 30 30" fill="none" xmlns="http://www.w3.org/2000/svg">
<path d="M28.125 15.0006C28.1258 15.3189 28.0442 15.632 27.8881 15.9094C27.732 16.1869 27.5068 16.4192 27.2344 16.5838L10.35 26.9127C10.0653 27.087 9.7393 27.1822 9.40556 27.1883C9.07182 27.1945 8.74249 27.1115 8.45156 26.9478C8.16341 26.7867 7.92337 26.5518 7.75613 26.2671C7.58889 25.9825 7.50048 25.6585 7.5 25.3283V4.67285C7.50048 4.34272 7.58889 4.01867 7.75613 3.73403C7.92337 3.44939 8.16341 3.21443 8.45156 3.05332C8.74249 2.88967 9.07182 2.80664 9.40556 2.81282C9.7393 2.819 10.0653 2.91416 10.35 3.08848L27.2344 13.4174C27.5068 13.582 27.732 13.8143 27.8881 14.0917C28.0442 14.3692 28.1258 14.6823 28.125 15.0006Z" fill="#C36247"/>
</svg>
