<svg width="58" height="58" viewBox="0 0 58 58" fill="none" xmlns="http://www.w3.org/2000/svg">
<path d="M14.7665 13.4357C17.6423 13.774 19.6723 14.8374 21.7507 16.9157L24.1673 19.3324L16.3132 27.1865C17.0623 27.4765 17.6665 27.839 18.174 28.129C19.0682 28.6849 19.5998 28.999 20.9531 28.999C22.3065 28.999 22.8382 28.6849 23.7323 28.129C24.844 27.4765 26.3423 26.5824 29.0248 26.5824C31.7073 26.5824 33.2056 27.4765 34.2931 28.129C35.1873 28.6607 35.7431 28.999 37.0723 28.999C38.4015 28.999 38.9573 28.6849 39.8515 28.129C40.1415 27.9599 40.4798 27.7665 40.8423 27.5732L25.3273 12.0824C22.2823 9.03737 19.4307 7.73237 15.2257 7.36987C13.534 7.22487 12.084 8.60237 12.084 10.294V10.5115C12.084 12.034 13.2682 13.2424 14.7665 13.4357ZM51.5965 45.6982C51.1856 45.5532 50.8232 45.3357 50.3881 45.0457C49.3006 44.3932 47.8023 43.499 45.1198 43.499C42.4373 43.499 40.939 44.3932 39.8515 45.0457C38.9573 45.6015 38.4015 45.9157 37.0723 45.9157C35.7431 45.9157 35.1873 45.5774 34.2931 45.0457C33.2056 44.3932 31.7073 43.499 29.0248 43.499C26.3423 43.499 24.844 44.3932 23.7323 45.0457C22.8382 45.6015 22.3065 45.9157 20.9531 45.9157C19.5998 45.9157 19.0682 45.6015 18.174 45.0457C17.0865 44.3932 15.5882 43.499 12.9057 43.499C10.2232 43.499 8.72482 44.3932 7.61315 45.0457C7.17815 45.3115 6.81565 45.529 6.40482 45.6982C5.48648 46.0124 4.83398 46.7857 4.83398 47.7524V48.0424C4.83398 49.6615 6.42898 50.7732 7.97565 50.2415C8.86982 49.9274 9.54648 49.5165 10.1265 49.1782C11.0207 48.6465 11.5765 48.3324 12.9057 48.3324C14.2348 48.3324 14.7906 48.6465 15.6848 49.2024C16.7723 49.8549 18.2706 50.749 20.9531 50.749C23.6357 50.749 25.134 49.8549 26.2456 49.2024C27.1398 48.6465 27.6715 48.3324 29.0248 48.3324C30.354 48.3324 30.9098 48.6707 31.804 49.2024C32.8915 49.8549 34.3898 50.749 37.0723 50.749C39.7548 50.749 41.229 49.8549 42.3406 49.2024C43.2348 48.6465 43.7665 48.3324 45.1198 48.3324C46.449 48.3324 47.0048 48.6707 47.899 49.2024C48.4548 49.5407 49.1315 49.9515 50.0257 50.2657C51.5481 50.7974 53.1673 49.6857 53.1673 48.0665V47.7765C53.1673 46.7857 52.5148 46.0124 51.5965 45.6982ZM7.51648 39.5115C8.65232 39.1974 9.47398 38.714 10.1507 38.3274C11.0448 37.7715 11.6007 37.4574 12.9298 37.4574C14.259 37.4574 14.8148 37.7957 15.709 38.3274C16.7965 38.9799 18.2948 39.874 20.9773 39.874C23.6598 39.874 25.1581 38.9799 26.2456 38.3274C27.1398 37.7715 27.6715 37.4574 29.0248 37.4574C30.354 37.4574 30.9098 37.7957 31.804 38.3274C32.8915 38.9799 34.3898 39.874 37.0723 39.874C39.7548 39.874 41.2532 38.9799 42.3406 38.3274C43.2348 37.7715 43.7665 37.4574 45.1198 37.4574C46.449 37.4574 47.0048 37.7957 47.899 38.3274C48.4548 38.6657 49.1073 39.0524 49.9531 39.3665C50.3081 39.4947 50.6886 39.5359 51.0628 39.4869C51.437 39.4378 51.7941 39.2999 52.104 39.0845C52.414 38.8692 52.6679 38.5828 52.8444 38.2493C53.021 37.9157 53.1152 37.5448 53.119 37.1674V36.8774C53.119 35.9107 52.4665 35.1374 51.5723 34.799C51.1615 34.654 50.799 34.4365 50.3398 34.1707C49.2523 33.5182 47.754 32.624 45.0715 32.624C42.389 32.624 40.8906 33.5182 39.8031 34.1707C38.909 34.7265 38.3531 35.0407 37.024 35.0407C35.6948 35.0407 35.139 34.7024 34.2448 34.1707C33.1573 33.5182 31.659 32.624 28.9765 32.624C26.294 32.624 24.7957 33.5182 23.7082 34.1707C22.814 34.7265 22.2823 35.0407 20.929 35.0407C19.5998 35.0407 19.044 34.7024 18.1498 34.1707C17.0623 33.5182 15.564 32.624 12.8815 32.624C10.199 32.624 8.70065 33.5182 7.61315 34.1707C7.17815 34.4365 6.81565 34.654 6.40482 34.8232C5.48648 35.1374 4.83398 35.9107 4.83398 36.8774V37.4332C4.83398 38.8349 6.16315 39.8982 7.51648 39.5115Z" fill="#C36247"/>
<path d="M39.8757 19.3333C43.2124 19.3333 45.9173 16.6284 45.9173 13.2917C45.9173 9.95495 43.2124 7.25 39.8757 7.25C36.5389 7.25 33.834 9.95495 33.834 13.2917C33.834 16.6284 36.5389 19.3333 39.8757 19.3333Z" fill="#C36247"/>
</svg>
