<svg width="60" height="60" viewBox="0 0 60 60" fill="none" xmlns="http://www.w3.org/2000/svg">
<path d="M42.5 55C40.4167 55 38.6458 54.2708 37.1875 52.8125C35.7292 51.3542 35 49.5833 35 47.5C35 47.25 35.0625 46.6667 35.1875 45.75L17.625 35.5C16.9583 36.125 16.1875 36.615 15.3125 36.97C14.4375 37.325 13.5 37.5017 12.5 37.5C10.4167 37.5 8.64583 36.7708 7.1875 35.3125C5.72917 33.8542 5 32.0833 5 30C5 27.9167 5.72917 26.1458 7.1875 24.6875C8.64583 23.2292 10.4167 22.5 12.5 22.5C13.5 22.5 14.4375 22.6775 15.3125 23.0325C16.1875 23.3875 16.9583 23.8767 17.625 24.5L35.1875 14.25C35.1042 13.9583 35.0525 13.6775 35.0325 13.4075C35.0125 13.1375 35.0017 12.835 35 12.5C35 10.4167 35.7292 8.64583 37.1875 7.1875C38.6458 5.72917 40.4167 5 42.5 5C44.5833 5 46.3542 5.72917 47.8125 7.1875C49.2708 8.64583 50 10.4167 50 12.5C50 14.5833 49.2708 16.3542 47.8125 17.8125C46.3542 19.2708 44.5833 20 42.5 20C41.5 20 40.5625 19.8225 39.6875 19.4675C38.8125 19.1125 38.0417 18.6233 37.375 18L19.8125 28.25C19.8958 28.5417 19.9483 28.8233 19.97 29.095C19.9917 29.3667 20.0017 29.6683 20 30C19.9983 30.3317 19.9883 30.6342 19.97 30.9075C19.9517 31.1808 19.8992 31.4617 19.8125 31.75L37.375 42C38.0417 41.375 38.8125 40.8858 39.6875 40.5325C40.5625 40.1792 41.5 40.0017 42.5 40C44.5833 40 46.3542 40.7292 47.8125 42.1875C49.2708 43.6458 50 45.4167 50 47.5C50 49.5833 49.2708 51.3542 47.8125 52.8125C46.3542 54.2708 44.5833 55 42.5 55Z" fill="#9f3417" />
</svg>
