<svg width="50" height="50" viewBox="0 0 50 50" fill="none" xmlns="http://www.w3.org/2000/svg">
<g clip-path="url(#clip0_197_1028)">
<path fill-rule="evenodd" clip-rule="evenodd" d="M16.5418 27.2089C15.9566 26.6229 15.6279 25.8287 15.6279 25.0005C15.6279 24.1724 15.9566 23.3781 16.5418 22.7922L28.3252 11.0047C28.9114 10.4187 29.7064 10.0896 30.5353 10.0898C30.9457 10.0899 31.3521 10.1709 31.7312 10.328C32.1104 10.4852 32.4548 10.7155 32.745 11.0057C33.0351 11.296 33.2652 11.6406 33.4222 12.0198C33.5792 12.399 33.6599 12.8054 33.6598 13.2158C33.6597 13.6263 33.5788 14.0326 33.4216 14.4118C33.2645 14.7909 33.0342 15.1354 32.7439 15.4255L23.171 25.0005L32.746 34.5755C33.0446 34.8637 33.2828 35.2084 33.4468 35.5896C33.6108 35.9707 33.6972 36.3808 33.701 36.7957C33.7048 37.2106 33.6259 37.6222 33.4689 38.0063C33.312 38.3904 33.0801 38.7394 32.7868 39.033C32.4936 39.3265 32.1448 39.5587 31.7608 39.716C31.3768 39.8734 30.9654 39.9526 30.5504 39.9492C30.1355 39.9458 29.7254 39.8598 29.344 39.6962C28.9627 39.5326 28.6178 39.2947 28.3293 38.9964L16.5377 27.2089H16.5418Z" fill="white" fill-opacity="0.6"/>
</g>
<defs>
<clipPath id="clip0_197_1028">
<rect width="50" height="50" fill="white"/>
</clipPath>
</defs>
</svg>
