<svg width="20" height="20" viewBox="0 0 20 20" fill="none" xmlns="http://www.w3.org/2000/svg">
<path d="M17.8919 9.65025L12.5419 4.30858C12.4056 4.17151 12.2259 4.08608 12.0336 4.06691L4.24191 3.33358C4.11986 3.32235 3.99683 3.33819 3.88159 3.37996C3.76636 3.42174 3.66176 3.48842 3.57525 3.57525C3.48842 3.66176 3.42174 3.76636 3.37996 3.88159C3.33819 3.99683 3.32235 4.11986 3.33358 4.24191L4.06691 12.0336C4.08608 12.2259 4.17151 12.4056 4.30858 12.5419L9.65025 17.8919C9.93674 18.1745 10.3228 18.3331 10.7252 18.3336C11.1251 18.3327 11.5085 18.174 11.7919 17.8919L17.8919 11.7919C18.1754 11.5076 18.3345 11.1225 18.3345 10.7211C18.3345 10.3196 18.1754 9.93455 17.8919 9.65025ZM9.63358 9.65025C9.45883 9.82522 9.2361 9.94442 8.99358 9.99278C8.75106 10.0411 8.49965 10.0165 8.27115 9.92191C8.04265 9.82735 7.84734 9.66713 7.70992 9.46154C7.5725 9.25594 7.49915 9.01421 7.49915 8.76691C7.49915 8.51962 7.5725 8.27788 7.70992 8.07229C7.84734 7.86669 8.04265 7.70648 8.27115 7.61192C8.49965 7.51735 8.75106 7.49269 8.99358 7.54105C9.2361 7.5894 9.45883 7.70861 9.63358 7.88358C9.86461 8.11619 9.99428 8.43073 9.99428 8.75858C9.99428 9.08643 9.86461 9.40097 9.63358 9.63358V9.65025Z" fill="white" fill-opacity="0.5"/>
</svg>
