<svg width="28" height="29" viewBox="0 0 28 29" fill="none" xmlns="http://www.w3.org/2000/svg">
<path d="M22.2249 5.96928C21.1552 4.88907 19.8811 4.03258 18.477 3.4497C17.0729 2.86683 15.5669 2.56925 14.0466 2.57428C7.6766 2.57428 2.48494 7.76595 2.48494 14.1359C2.48494 16.1776 3.0216 18.161 4.02494 19.911L2.3916 25.9076L8.5166 24.2976C10.2083 25.2193 12.1099 25.7093 14.0466 25.7093C20.4166 25.7093 25.6083 20.5176 25.6083 14.1476C25.6083 11.0559 24.4066 8.15095 22.2249 5.96928ZM14.0466 23.7493C12.3199 23.7493 10.6283 23.2826 9.1466 22.4076L8.7966 22.1976L5.1566 23.1543L6.12494 19.6076L5.8916 19.246C4.93207 17.7142 4.42268 15.9434 4.4216 14.1359C4.4216 8.83928 8.73827 4.52262 14.0349 4.52262C16.6016 4.52262 19.0166 5.52595 20.8249 7.34595C21.7205 8.23712 22.4302 9.29725 22.9128 10.4648C23.3955 11.6324 23.6415 12.8842 23.6366 14.1476C23.6599 19.4443 19.3433 23.7493 14.0466 23.7493ZM19.3199 16.5626C19.0283 16.4226 17.6049 15.7226 17.3483 15.6176C17.0799 15.5243 16.8933 15.4776 16.6949 15.7576C16.4966 16.0493 15.9483 16.7026 15.7849 16.8893C15.6216 17.0876 15.4466 17.1109 15.1549 16.9593C14.8633 16.8193 13.9299 16.5043 12.8333 15.5243C11.9699 14.7543 11.3983 13.8093 11.2233 13.5176C11.0599 13.2259 11.1999 13.0743 11.3516 12.9226C11.4799 12.7943 11.6433 12.5843 11.7833 12.4209C11.9233 12.2576 11.9816 12.1293 12.0749 11.9426C12.1683 11.7443 12.1216 11.5809 12.0516 11.4409C11.9816 11.3009 11.3983 9.87762 11.1649 9.29428C10.9316 8.73428 10.6866 8.80428 10.5116 8.79262H9.9516C9.75327 8.79262 9.44994 8.86262 9.1816 9.15428C8.92493 9.44595 8.17827 10.1459 8.17827 11.5693C8.17827 12.9926 9.2166 14.3693 9.3566 14.556C9.4966 14.7543 11.3983 17.671 14.2916 18.9193C14.9799 19.2226 15.5166 19.3976 15.9366 19.526C16.6249 19.7476 17.2549 19.7126 17.7566 19.6426C18.3166 19.5609 19.4716 18.9426 19.7049 18.2659C19.9499 17.5893 19.9499 17.0176 19.8683 16.8893C19.7866 16.761 19.6116 16.7026 19.3199 16.5626Z" fill="#9f3517"/>
</svg>
