<svg width="20" height="20" viewBox="0 0 20 20" fill="none" xmlns="http://www.w3.org/2000/svg">
<path d="M15.8737 4.09106C15.1096 3.31948 14.1995 2.7077 13.1966 2.29136C12.1937 1.87503 11.1179 1.66246 10.032 1.66606C5.48203 1.66606 1.7737 5.37439 1.7737 9.92439C1.7737 11.3827 2.15703 12.7994 2.8737 14.0494L1.70703 18.3327L6.08203 17.1827C7.29036 17.8411 8.6487 18.1911 10.032 18.1911C14.582 18.1911 18.2904 14.4827 18.2904 9.93273C18.2904 7.72439 17.432 5.64939 15.8737 4.09106ZM10.032 16.7911C8.7987 16.7911 7.59036 16.4577 6.53203 15.8327L6.28203 15.6827L3.68203 16.3661L4.3737 13.8327L4.20703 13.5744C3.52165 12.4803 3.1578 11.2155 3.15703 9.92439C3.15703 6.14106 6.24036 3.05773 10.0237 3.05773C11.857 3.05773 13.582 3.77439 14.8737 5.07439C15.5134 5.71095 16.0203 6.46818 16.3651 7.30217C16.7098 8.13616 16.8855 9.0303 16.882 9.93273C16.8987 13.7161 13.8154 16.7911 10.032 16.7911ZM13.7987 11.6577C13.5904 11.5577 12.5737 11.0577 12.3904 10.9827C12.1987 10.9161 12.0654 10.8827 11.9237 11.0827C11.782 11.2911 11.3904 11.7577 11.2737 11.8911C11.157 12.0327 11.032 12.0494 10.8237 11.9411C10.6154 11.8411 9.9487 11.6161 9.16536 10.9161C8.5487 10.3661 8.14036 9.69106 8.01536 9.48273C7.8987 9.27439 7.9987 9.16606 8.10703 9.05773C8.1987 8.96606 8.31536 8.81606 8.41536 8.69939C8.51536 8.58273 8.55703 8.49106 8.6237 8.35773C8.69036 8.21606 8.65703 8.09939 8.60703 7.99939C8.55703 7.89939 8.14036 6.88273 7.9737 6.46606C7.80703 6.06606 7.63203 6.11606 7.50703 6.10773H7.10703C6.96536 6.10773 6.7487 6.15773 6.55703 6.36606C6.3737 6.57439 5.84036 7.07439 5.84036 8.09106C5.84036 9.10773 6.58203 10.0911 6.68203 10.2244C6.78203 10.3661 8.14036 12.4494 10.207 13.3411C10.6987 13.5577 11.082 13.6827 11.382 13.7744C11.8737 13.9327 12.3237 13.9077 12.682 13.8577C13.082 13.7994 13.907 13.3577 14.0737 12.8744C14.2487 12.3911 14.2487 11.9827 14.1904 11.8911C14.132 11.7994 14.007 11.7577 13.7987 11.6577Z" fill="white" fill-opacity="0.5"/>
</svg>
