<svg width="34" height="33" viewBox="0 0 34 33" fill="none" xmlns="http://www.w3.org/2000/svg">
<path d="M27.761 28.778C24.906 28.778 22.0854 28.1558 19.2989 26.9116C16.5125 25.6673 13.9773 23.9027 11.6934 21.6178C9.40944 19.3329 7.64531 16.7978 6.40102 14.0123C5.15672 11.2267 4.53412 8.40607 4.5332 5.55022C4.5332 5.13911 4.67024 4.79651 4.94431 4.52244C5.21839 4.24837 5.56098 4.11133 5.97209 4.11133H11.5221C11.8418 4.11133 12.1273 4.22004 12.3786 4.43748C12.6298 4.65491 12.7783 4.91162 12.8239 5.20762L13.7147 10.0039C13.7604 10.3694 13.7489 10.6777 13.6804 10.9289C13.6119 11.1802 13.4863 11.3971 13.3036 11.5798L9.98043 14.9373C10.4372 15.7823 10.9794 16.5986 11.6071 17.3861C12.2347 18.1736 12.9258 18.9333 13.6804 19.665C14.3885 20.3731 15.1307 21.0299 15.9073 21.6356C16.6838 22.2413 17.506 22.795 18.3739 23.2965L21.5943 20.0761C21.7999 19.8706 22.0685 19.7166 22.4001 19.6143C22.7317 19.512 23.057 19.4832 23.3758 19.528L28.1036 20.4873C28.4233 20.5786 28.686 20.7444 28.8915 20.9847C29.0971 21.225 29.1999 21.4931 29.1999 21.7891V27.3391C29.1999 27.7502 29.0628 28.0928 28.7888 28.3669C28.5147 28.641 28.1721 28.778 27.761 28.778Z" fill="#1E1E1E"/>
</svg>
