<svg width="34" height="34" viewBox="0 0 34 34" fill="none" xmlns="http://www.w3.org/2000/svg">
<path d="M26.5277 7.41754C25.2712 6.14872 23.7747 5.14268 22.1254 4.45804C20.4762 3.77339 18.7072 3.42385 16.9214 3.42976C9.43922 3.42976 3.34108 9.52791 3.34108 17.0101C3.34108 19.4083 3.97145 21.7379 5.14996 23.7935L3.23145 30.8372L10.4259 28.9461C12.4129 30.0287 14.6466 30.6042 16.9214 30.6042C24.4037 30.6042 30.5018 24.5061 30.5018 17.0238C30.5018 13.3924 29.0903 9.98013 26.5277 7.41754ZM16.9214 28.302C14.8933 28.302 12.9063 27.7538 11.1659 26.7261L10.7548 26.4794L6.47922 27.6031L7.61663 23.4372L7.34256 23.0124C6.21549 21.2131 5.61716 19.1332 5.61589 17.0101C5.61589 10.7887 10.6863 5.71828 16.9077 5.71828C19.9226 5.71828 22.7592 6.8968 24.8833 9.03458C25.9352 10.0814 26.7688 11.3266 27.3357 12.698C27.9027 14.0695 28.1916 15.5398 28.1859 17.0238C28.2133 23.2453 23.1429 28.302 16.9214 28.302ZM23.1155 19.8605C22.7729 19.6961 21.1011 18.8738 20.7996 18.7505C20.4844 18.6409 20.2651 18.5861 20.0322 18.9149C19.7992 19.2575 19.1551 20.0249 18.9633 20.2442C18.7714 20.4772 18.5659 20.5046 18.2233 20.3264C17.8807 20.162 16.7844 19.792 15.4963 18.6409C14.4822 17.7364 13.8107 16.6264 13.6051 16.2838C13.4133 15.9412 13.5777 15.7631 13.7559 15.5849C13.9066 15.4342 14.0985 15.1875 14.2629 14.9957C14.4274 14.8038 14.4959 14.6531 14.6055 14.4338C14.7151 14.2009 14.6603 14.009 14.5781 13.8446C14.4959 13.6801 13.8107 12.0083 13.5366 11.3231C13.2626 10.6653 12.9748 10.7475 12.7692 10.7338H12.1114C11.8785 10.7338 11.5222 10.8161 11.207 11.1587C10.9055 11.5012 10.0285 12.3235 10.0285 13.9953C10.0285 15.6672 11.2481 17.2842 11.4126 17.5035C11.577 17.7364 13.8107 21.1624 17.2092 22.6287C18.0177 22.9849 18.6481 23.1905 19.1414 23.3412C19.95 23.6016 20.69 23.5605 21.2792 23.4783C21.937 23.3824 23.2937 22.6561 23.5677 21.8612C23.8555 21.0664 23.8555 20.3949 23.7596 20.2442C23.6637 20.0935 23.4581 20.0249 23.1155 19.8605Z" fill="#1E1E1E"/>
</svg>
